<svg id="Слой_2" data-name="Слой 2" xmlns="http://www.w3.org/2000/svg" viewBox="0 0 483.41 892.18"><title>mebel-logo</title><path d="M1034,210s84,113-16,514c0,0-28,142-19,214,0,0,30-201,93-333C1092,605,1224,378,1034,210Z" transform="translate(-727.55 -119.82)"/><path d="M1187,486s-18,78-75,163c0,0-78,151-76,212,0,0,74-158,118-179C1154,682,1256,582,1187,486Z" transform="translate(-727.55 -119.82)"/><path d="M904.51,209.67s-84,113,16,514c0,0,28,142,19,214,0,0-30-201-93-333C846.51,604.67,714.51,377.67,904.51,209.67Z" transform="translate(-727.55 -119.82)"/><path d="M751.51,485.67s18,78,75,163c0,0,78,151,76,212,0,0-74-158-118-179C784.51,681.67,682.51,581.67,751.51,485.67Z" transform="translate(-727.55 -119.82)"/><path d="M967,1012s-13-414-33-450c0,0-39-329,33-441,0,0,81,89,39,445C1006,566,968,980,967,1012Z" transform="translate(-727.55 -119.82)"/><path d="M966,1010.82s13-414,33-450c0,0,39-329-33-441,0,0-81,89-39,445C927,564.82,965,978.82,966,1010.82Z" transform="translate(-727.55 -119.82)"/></svg>